<?xml version="1.0" encoding="UTF-8"?>
<svg xmlns="http://www.w3.org/2000/svg" xmlns:xlink="http://www.w3.org/1999/xlink" viewBox="0 0 2852.83 2835.69">
  <defs>
    <style>
      .cls-1 {
        fill: none;
      }

      .cls-2 {
        fill: #d8dee8;
      }

      .cls-3 {
        fill: #beb8f2;
      }

      .cls-4 {
        opacity: .24;
      }

      .cls-4, .cls-5, .cls-6, .cls-7, .cls-8, .cls-9, .cls-10, .cls-11 {
        mix-blend-mode: multiply;
      }

      .cls-5, .cls-8, .cls-9, .cls-10, .cls-11 {
        opacity: .3;
      }

      .cls-6 {
        opacity: .2;
      }

      .cls-12 {
        fill: url(#linear-gradient-8);
      }

      .cls-13 {
        fill: url(#linear-gradient-7);
      }

      .cls-14 {
        fill: url(#linear-gradient-5);
      }

      .cls-15 {
        fill: url(#linear-gradient-6);
      }

      .cls-16 {
        fill: url(#linear-gradient-9);
      }

      .cls-17 {
        fill: url(#linear-gradient-4);
      }

      .cls-18 {
        fill: url(#linear-gradient-3);
      }

      .cls-19 {
        fill: url(#linear-gradient-2);
      }

      .cls-20 {
        fill: #444b8c;
      }

      .cls-21 {
        fill: url(#linear-gradient);
      }

      .cls-22 {
        mix-blend-mode: soft-light;
        opacity: .5;
      }

      .cls-23 {
        fill: #ae87f9;
      }

      .cls-24 {
        isolation: isolate;
      }

      .cls-25 {
        fill: #552d63;
      }

      .cls-26 {
        clip-path: url(#clippath-1);
      }

      .cls-27 {
        clip-path: url(#clippath-3);
      }

      .cls-28 {
        clip-path: url(#clippath-2);
      }

      .cls-29 {
        fill: #fcfdfe;
      }

      .cls-30 {
        fill: #9f73f8;
      }

      .cls-31 {
        fill: #26264f;
      }

      .cls-32 {
        fill: #fff;
      }

      .cls-33 {
        fill: #1f1f44;
      }

      .cls-34 {
        fill: url(#linear-gradient-43);
      }

      .cls-35 {
        fill: url(#linear-gradient-40);
      }

      .cls-36 {
        fill: url(#linear-gradient-41);
      }

      .cls-37 {
        fill: url(#linear-gradient-42);
      }

      .cls-38 {
        fill: url(#linear-gradient-48);
      }

      .cls-39 {
        fill: url(#linear-gradient-45);
      }

      .cls-40 {
        fill: url(#linear-gradient-47);
      }

      .cls-41 {
        fill: url(#linear-gradient-44);
      }

      .cls-42 {
        fill: url(#linear-gradient-46);
      }

      .cls-43 {
        fill: url(#linear-gradient-11);
      }

      .cls-44 {
        fill: url(#linear-gradient-13);
      }

      .cls-45 {
        fill: url(#linear-gradient-14);
      }

      .cls-46 {
        fill: url(#linear-gradient-21);
      }

      .cls-47 {
        fill: url(#linear-gradient-20);
      }

      .cls-48 {
        fill: url(#linear-gradient-22);
      }

      .cls-49 {
        fill: url(#linear-gradient-23);
      }

      .cls-50 {
        fill: url(#linear-gradient-28);
      }

      .cls-51 {
        fill: url(#linear-gradient-25);
      }

      .cls-52 {
        fill: url(#linear-gradient-32);
      }

      .cls-53 {
        fill: url(#linear-gradient-31);
      }

      .cls-54 {
        fill: url(#linear-gradient-33);
      }

      .cls-55 {
        fill: url(#linear-gradient-16);
      }

      .cls-56 {
        fill: url(#linear-gradient-17);
      }

      .cls-57 {
        fill: url(#linear-gradient-18);
      }

      .cls-58 {
        fill: url(#linear-gradient-35);
      }

      .cls-59 {
        fill: url(#linear-gradient-34);
      }

      .cls-60 {
        fill: url(#linear-gradient-36);
      }

      .cls-61 {
        fill: url(#linear-gradient-38);
      }

      .cls-62 {
        fill: url(#linear-gradient-27);
      }

      .cls-63 {
        fill: url(#linear-gradient-24);
      }

      .cls-64 {
        fill: url(#linear-gradient-26);
      }

      .cls-65 {
        fill: url(#linear-gradient-29);
      }

      .cls-66 {
        fill: url(#linear-gradient-37);
      }

      .cls-67 {
        fill: url(#linear-gradient-39);
      }

      .cls-7 {
        fill: url(#linear-gradient-10);
        opacity: .37;
      }

      .cls-8 {
        fill: url(#linear-gradient-12);
      }

      .cls-9 {
        fill: url(#linear-gradient-15);
      }

      .cls-10 {
        fill: url(#linear-gradient-30);
      }

      .cls-11 {
        fill: url(#linear-gradient-19);
      }

      .cls-68 {
        fill: #f4f7fa;
      }

      .cls-69 {
        clip-path: url(#clippath);
      }
    </style>
    <clipPath id="clippath">
      <path class="cls-1" d="M950.16,1503.15l199.01-44.32s14.73-110.43-50.09-171.62c-132.25-124.84-13.68-231.95,29.27-284.24,64.77-78.86,87.45-176.6-36.45-189.36-123.9-12.76-47.81-217.32,75.15-329.6,120.32-109.88-5.57-387.17-287.83-173.26-168.57,127.74-94.84,320.21-80.72,426.25,14.12,106.04-138.68,149.11-57.42,264.4,69.41,98.48,172.97,158.49,124.01,247.73-48.96,89.24-37.11,174.42,85.06,254.03Z"/>
    </clipPath>
    <linearGradient id="linear-gradient" x1="84.14" y1="5628.52" x2="-321.75" y2="6782.11" gradientTransform="translate(-261.4 -5209.29) rotate(-12.56)" gradientUnits="userSpaceOnUse">
      <stop offset="0" stop-color="#ff9085"/>
      <stop offset="1" stop-color="#fb6fbb"/>
    </linearGradient>
    <linearGradient id="linear-gradient-2" x1="-1298.71" y1="3401.97" x2="-787.67" y2="4744.77" gradientTransform="translate(-3571.17 -325.86) rotate(120.4) scale(1 -1)" gradientUnits="userSpaceOnUse">
      <stop offset="0" stop-color="#ffc444"/>
      <stop offset="1" stop-color="#f36f56"/>
    </linearGradient>
    <clipPath id="clippath-1">
      <path class="cls-1" d="M927.06,1085.43l-119.39,138.24s-131.72-13.29-131.2-85.5c.53-72.22-117.37-101.56-177.91-124.8-164.26-63.06-56.43-236.38-259.9-335.16-54.12-26.27-167.29-57.2-185.32-126.45-20.54-78.9,48.53-95.78,25.83-151.11-35.48-86.47-11.89-187.49,81.99-209.05,92.66-21.28,189.17,105.83,210.66,316.05,32.33,147.76,57.56,162.04,125.38,184.48,47.51,15.72,186.72,26.88,199.8,113.26,13.08,86.38,37.71,159.49,100.74,159.17,95.91-.49,129.32,120.86,129.32,120.86Z"/>
    </clipPath>
    <linearGradient id="linear-gradient-3" x1="-8932.87" y1="2112.64" x2="-8220.19" y2="4010.71" gradientTransform="translate(1479.11 -8450.04) rotate(-70.63)" gradientUnits="userSpaceOnUse">
      <stop offset="0" stop-color="#e38ddd"/>
      <stop offset="1" stop-color="#9571f6"/>
    </linearGradient>
    <clipPath id="clippath-2">
      <path class="cls-1" d="M1019.73,1117.89l-173.67,232.15c-41.48-9.29-112.27-34.11-90.2-93.06,30.69-81.95-82.42-165.31-136.61-175.56-67.07-12.69-222.44-45.49-176.94-172.82,37.87-106,83.48-167.87-19.23-250.6-102.71-82.73-124.47-191.8-43.11-289.03,85.61-102.32,14.12-287.5,124.32-342.7,192.01-96.18,326.22,211.21,257.68,446.1-68.54,234.89,74.04,173.96,165.47,231.65,124.82,78.76-25.64,230-11.58,308.41,11.03,61.47,66.73,91.34,103.88,105.47Z"/>
    </clipPath>
    <linearGradient id="linear-gradient-4" x1="1091.22" y1="981.15" x2="1281.98" y2="1671.98" gradientTransform="matrix(1,0,0,1,0,0)" xlink:href="#linear-gradient-2"/>
    <linearGradient id="linear-gradient-5" x1="549.42" y1="2024.57" x2="-331.63" y2="2118.09" gradientTransform="matrix(1,0,0,1,0,0)" xlink:href="#linear-gradient-2"/>
    <linearGradient id="linear-gradient-6" x1="1019.91" y1="1639.99" x2="1753.3" y2="3264.27" gradientTransform="matrix(1,0,0,1,0,0)" xlink:href="#linear-gradient-2"/>
    <linearGradient id="linear-gradient-7" x1="1194.37" y1="1855.19" x2="1266.57" y2="277.86" gradientTransform="matrix(1,0,0,1,0,0)" xlink:href="#linear-gradient-2"/>
    <linearGradient id="linear-gradient-8" x1="1019.89" y1="1639.99" x2="1753.28" y2="3264.28" gradientTransform="matrix(1,0,0,1,0,0)" xlink:href="#linear-gradient-2"/>
    <linearGradient id="linear-gradient-9" x1="1266.22" y1="668.12" x2="1159.13" y2="2184.3" gradientUnits="userSpaceOnUse">
      <stop offset="0" stop-color="#fff"/>
      <stop offset="1" stop-color="#d8dee8"/>
    </linearGradient>
    <linearGradient id="linear-gradient-10" x1="1227.66" y1="1546.18" x2="1961.05" y2="3170.47" gradientTransform="matrix(1,0,0,1,0,0)" xlink:href="#linear-gradient-2"/>
    <linearGradient id="linear-gradient-11" x1="-8678.2" y1="2510.39" x2="-9057.97" y2="2958.27" gradientTransform="translate(8284.47 -4365.2) rotate(-22.77)" gradientUnits="userSpaceOnUse">
      <stop offset="0" stop-color="#311944"/>
      <stop offset="1" stop-color="#893976"/>
    </linearGradient>
    <linearGradient id="linear-gradient-12" x1="-8724.97" y1="2470.72" x2="-9104.75" y2="2918.6" xlink:href="#linear-gradient-11"/>
    <linearGradient id="linear-gradient-13" x1="-1268.43" y1="2192.26" x2="-1574.97" y2="2553.78" gradientTransform="translate(-1475.08 -267.95) rotate(157.23) scale(1 -1)" xlink:href="#linear-gradient-11"/>
    <linearGradient id="linear-gradient-14" x1="-8502.83" y1="1688.58" x2="-8152.36" y2="3627.11" gradientTransform="translate(8284.47 -4365.2) rotate(-22.77)" gradientUnits="userSpaceOnUse">
      <stop offset="0" stop-color="#aa80f9"/>
      <stop offset="1" stop-color="#6165d7"/>
    </linearGradient>
    <linearGradient id="linear-gradient-15" x1="-8622.76" y1="1692.1" x2="-8267.92" y2="3654.8" xlink:href="#linear-gradient-14"/>
    <linearGradient id="linear-gradient-16" x1="-2529.73" y1="1961.73" x2="-3227.86" y2="2785.07" gradientTransform="translate(-780.79 -1567.32) rotate(180) scale(1 -1)" xlink:href="#linear-gradient-3"/>
    <linearGradient id="linear-gradient-17" x1="-2480.84" y1="2363.26" x2="-3153.85" y2="2380.41" gradientTransform="translate(-1475.08 -267.95) rotate(157.23) scale(1 -1)" xlink:href="#linear-gradient-11"/>
    <clipPath id="clippath-3">
      <path class="cls-1" d="M2343.28,1390c33.97-14.26,61.38-42.53,81.44-84.02,20.42-42.22,32.38-95.92,35.55-159.6,6.65-133.86-26.31-294.82-92.81-453.24-66.5-158.41-158.31-294.67-258.52-383.67-47.67-42.34-94.37-71.41-138.81-86.4-43.67-14.73-83.03-14.97-117.01-.71-33.97,14.26-61.38,42.53-81.44,84.02-20.42,42.22-32.38,95.92-35.55,159.6-6.65,133.86,26.31,294.82,92.81,453.24,66.5,158.41,158.31,294.67,258.52,383.67,47.67,42.34,94.37,71.41,138.81,86.4,43.67,14.73,83.03,14.97,117.01.71Z"/>
    </clipPath>
    <linearGradient id="linear-gradient-18" x1="-8033.67" y1="1749.83" x2="-7804.84" y2="3015.53" gradientTransform="translate(8284.47 -4365.2) rotate(-22.77)" xlink:href="#linear-gradient-2"/>
    <linearGradient id="linear-gradient-19" x1="-7901.72" y1="1912.88" x2="-7732.88" y2="2846.77" gradientTransform="translate(8284.47 -4365.2) rotate(-22.77)" xlink:href="#linear-gradient-2"/>
    <linearGradient id="linear-gradient-20" x1="990.78" y1="1706.02" x2="1282.87" y2="2247.77" gradientTransform="translate(1130.11 -1528.13)" xlink:href="#linear-gradient-2"/>
    <linearGradient id="linear-gradient-21" x1="906.31" y1="1738.94" x2="1192.75" y2="2313.74" gradientTransform="translate(453.03 -910.4) rotate(-24.74)" xlink:href="#linear-gradient-2"/>
    <linearGradient id="linear-gradient-22" x1="1556.78" y1="1709.29" x2="1916.82" y2="2377.05" gradientTransform="translate(881.01 -1241.19)" xlink:href="#linear-gradient-14"/>
    <linearGradient id="linear-gradient-23" x1="1452.67" y1="1749.87" x2="1805.73" y2="2458.37" gradientTransform="translate(421.84 -708.41) rotate(-16.1)" xlink:href="#linear-gradient-14"/>
    <linearGradient id="linear-gradient-24" x1="2208.26" y1="614.26" x2="2496.72" y2="1149.27" gradientTransform="translate(330.53 13.78) rotate(9.27)" xlink:href="#linear-gradient"/>
    <linearGradient id="linear-gradient-25" x1="2208.26" y1="614.26" x2="2496.72" y2="1149.27" gradientTransform="translate(330.53 13.78) rotate(9.27)" xlink:href="#linear-gradient"/>
    <linearGradient id="linear-gradient-26" x1="2128.34" y1="644.76" x2="2412.15" y2="1214.3" gradientTransform="translate(330.53 13.78) rotate(9.27)" xlink:href="#linear-gradient"/>
    <linearGradient id="linear-gradient-27" x1="-13205.32" y1="1906.66" x2="-12364.59" y2="3702.64" gradientTransform="translate(-10632.78) rotate(-180) scale(1 -1)" xlink:href="#linear-gradient-14"/>
    <linearGradient id="linear-gradient-28" x1="-12819.13" y1="2173.98" x2="-12896.81" y2="2630.81" gradientTransform="translate(-10632.78) rotate(-180) scale(1 -1)" xlink:href="#linear-gradient-14"/>
    <linearGradient id="linear-gradient-29" x1="-13205.32" y1="1906.66" x2="-12364.59" y2="3702.65" gradientTransform="translate(-10632.78) rotate(-180) scale(1 -1)" xlink:href="#linear-gradient-14"/>
    <linearGradient id="linear-gradient-30" x1="-13423.87" y1="2267.72" x2="-12662.25" y2="2267.72" gradientTransform="translate(-10706.68) rotate(-180) scale(1 -1)" xlink:href="#linear-gradient-14"/>
    <linearGradient id="linear-gradient-31" x1="-12507.35" y1="-4778.42" x2="-12332.73" y2="-4778.42" gradientTransform="translate(-10300.31 -3604.51) rotate(-131.05) scale(1 -1)" gradientUnits="userSpaceOnUse">
      <stop offset="0" stop-color="#40447e"/>
      <stop offset="1" stop-color="#3c3b6b"/>
    </linearGradient>
    <linearGradient id="linear-gradient-32" x1="-12070.3" y1="3094.74" x2="-10665.06" y2="4553.01" gradientTransform="translate(-10493.4 368.44) rotate(174.38) scale(1 -1)" xlink:href="#linear-gradient-2"/>
    <linearGradient id="linear-gradient-33" x1="-13158.29" y1="1789.54" x2="-12294.9" y2="2248.12" gradientTransform="translate(-10705.12 -254.76) rotate(-176.5) scale(1 -1)" gradientUnits="userSpaceOnUse">
      <stop offset="0" stop-color="#311944"/>
      <stop offset="1" stop-color="#6b3976"/>
    </linearGradient>
    <linearGradient id="linear-gradient-34" x1="-13485.21" y1="1994.97" x2="-12702.32" y2="1849.52" gradientTransform="translate(-10705.12 -254.76) rotate(-176.5) scale(1 -1)" xlink:href="#linear-gradient-11"/>
    <linearGradient id="linear-gradient-35" x1="-12913.82" y1="2112.8" x2="-12997.05" y2="2390.22" gradientTransform="translate(-10706.68) rotate(-180) scale(1 -1)" xlink:href="#linear-gradient-2"/>
    <linearGradient id="linear-gradient-36" x1="-13204.18" y1="1771.51" x2="-13552.57" y2="3038.04" gradientTransform="translate(-10705.12 -254.76) rotate(-176.5) scale(1 -1)" xlink:href="#linear-gradient-2"/>
    <linearGradient id="linear-gradient-37" x1="-13157.38" y1="1913.58" x2="-13242.94" y2="1578.93" gradientTransform="translate(-10705.12 -254.76) rotate(-176.5) scale(1 -1)" xlink:href="#linear-gradient-2"/>
    <linearGradient id="linear-gradient-38" x1="-13181.71" y1="1805.33" x2="-12770.72" y2="1696.32" gradientTransform="translate(-10705.12 -254.76) rotate(-176.5) scale(1 -1)" gradientUnits="userSpaceOnUse">
      <stop offset="0" stop-color="#ab316d"/>
      <stop offset="1" stop-color="#792d3d"/>
    </linearGradient>
    <linearGradient id="linear-gradient-39" x1="-13290.86" y1="1747.67" x2="-13639.25" y2="3014.19" gradientTransform="translate(-10705.12 -254.76) rotate(-176.5) scale(1 -1)" xlink:href="#linear-gradient-2"/>
    <linearGradient id="linear-gradient-40" x1="-12909.11" y1="2918.13" x2="-12903.15" y2="2759.28" gradientTransform="translate(-10686.31 399.05) rotate(174.58) scale(1 -1)" xlink:href="#linear-gradient-38"/>
    <linearGradient id="linear-gradient-41" x1="4313.53" y1="3464.09" x2="4224.05" y2="3236.83" gradientTransform="translate(-2295.29 -659.69) rotate(-8.92)" xlink:href="#linear-gradient-33"/>
    <linearGradient id="linear-gradient-42" x1="-12896.3" y1="2789.18" x2="-12899.23" y2="3025.22" gradientTransform="translate(-10686.31 399.05) rotate(174.58) scale(1 -1)" xlink:href="#linear-gradient-38"/>
    <linearGradient id="linear-gradient-43" x1="-13056.96" y1="1776.9" x2="-12776.06" y2="1776.9" gradientTransform="translate(-10705.12 -254.76) rotate(-176.5) scale(1 -1)" xlink:href="#linear-gradient-31"/>
    <linearGradient id="linear-gradient-44" x1="-13235.26" y1="-1005.15" x2="-13095.75" y2="-1005.15" gradientTransform="translate(-10860.43 -1655.94) rotate(-157.87) scale(1 -1)" xlink:href="#linear-gradient-31"/>
    <linearGradient id="linear-gradient-45" x1="-12645.09" y1="1820.4" x2="-11239.79" y2="3278.73" gradientTransform="translate(-10705.12 -254.76) rotate(-176.5) scale(1 -1)" xlink:href="#linear-gradient-2"/>
    <linearGradient id="linear-gradient-46" x1="-13228.23" y1="1920.14" x2="-12584.61" y2="1857.39" xlink:href="#linear-gradient-33"/>
    <linearGradient id="linear-gradient-47" x1="-13475.69" y1="2046.22" x2="-12692.79" y2="1900.76" gradientTransform="translate(-10705.12 -254.76) rotate(-176.5) scale(1 -1)" xlink:href="#linear-gradient-11"/>
    <linearGradient id="linear-gradient-48" x1="-13196.44" y1="1944.18" x2="-12722.79" y2="1842.95" xlink:href="#linear-gradient-33"/>
  </defs>
  <g class="cls-24">
    <g id="Layer_2" data-name="Layer 2">
      <g id="Illustration">
        <g>
          <path class="cls-68" d="M1470.57,44.03c-308.85,124.26-338.44,441.89-616.52,469.15-242.31,23.75-334.41-206.17-504.43-164.97C90.62,410.96-72.21,1035.71,31.81,1549.42c107.4,530.44,558.67,1235.59,1306.28,1283.71,839.35,54.03,1474.45-757.31,1513.23-1469.31,4.19-77,28.96-722.16-458.51-1103.27-24.36-19.04-504.72-384.51-922.24-216.53Z"/>
          <g>
            <g class="cls-69">
              <path class="cls-21" d="M950.16,1503.15l199.01-44.32s14.73-110.43-50.09-171.62c-132.25-124.84-13.68-231.95,29.27-284.24,64.77-78.86,81.67-165.88-24.12-196.32-119.7-34.45-60.13-210.36,62.83-322.64,120.32-109.88-5.57-387.17-287.83-173.26-168.57,127.74-94.84,320.21-80.72,426.25,14.12,106.04-138.68,149.11-57.42,264.4,69.41,98.48,172.97,158.49,124.01,247.73-48.96,89.24-37.11,174.42,85.06,254.03Z"/>
              <g class="cls-22">
                <path class="cls-3" d="M1040.4,1502.44l3.96-1.68c-1.04-2.45-104.2-248.63-132.88-523.5-26.43-253.23,6.8-583.36,315.13-717.98l-1.72-3.94c-137.25,59.93-232.34,162.9-282.62,306.06-40.17,114.36-51.96,254.46-35.05,416.4,28.77,275.5,132.15,522.19,133.19,524.65Z"/>
                <path class="cls-3" d="M923.84,622.12l4.05-1.45c-48.18-134.92-39.22-343.8-39.12-345.9l-4.3-.2c-.1,2.1-9.1,211.84,39.37,347.54Z"/>
                <path class="cls-3" d="M959.95,527.65c121.8-119.62,263.36-106.77,264.77-106.62l.44-4.28c-1.44-.15-144.93-13.25-268.23,107.83l3.02,3.07Z"/>
                <path class="cls-3" d="M940.03,1155.94c2.86-208.54,261.44-317.13,264.05-317.97l-1.06-4.17c-2.64.59-264.41,111.69-267.3,322.08l4.3.06Z"/>
                <path class="cls-3" d="M920.04,1072.29l3.92-1.77c-54.78-121.29-212.23-178.08-213.81-178.64l-1.43,4.06c1.57.55,157.31,56.75,211.32,176.35Z"/>
                <path class="cls-3" d="M1028.99,1461.67c-11.11-78.45,85.36-164.01,86.34-164.87l-2.84-3.24c-4.06,3.55-99.21,87.94-87.76,168.71l4.26-.6Z"/>
                <path class="cls-3" d="M1003.77,1403.7l3.98-1.63c-23.72-57.98-129.78-104.84-164.63-120.23-4.93-2.18-9.18-4.05-9.87-4.54l-2.52,3.49c.97.7,3.79,1.95,10.65,4.98,34.46,15.22,139.33,61.55,162.39,117.93Z"/>
              </g>
            </g>
            <g>
              <path class="cls-19" d="M797.73,964.57c55.13-.28,88.43,41.55,107.79,75.6-2.41,4.72-2.6,8.05-3.97,13.32-12.41,47.66-27.85,65.34-47.5,110.39-4.23,9.7-25.29,34.38-34.55,43.91l-17.54,17.5s-126.02-14.9-125.5-87.12c.53-72.22-117.37-101.56-177.91-124.8-37.18-14.27-49.61-32.71-62.43-40.14-135.69-78.72-198.36-57.44-226.76-110.15-31.35-58.18,36.05-100.77,5.29-165.86-34.73-73.5-144-68.55-161.33-145.46-2.97-13.18-5.66-26.81-2.4-44.54,8.05-43.77,45.88-63.55,28.23-106.57-35.48-86.47-11.89-187.49,81.99-209.05,92.66-21.28,189.17,105.83,210.66,316.05,32.33,147.76,57.56,162.04,125.38,184.48,47.5,15.72,186.72,26.88,199.8,113.26,13.08,86.38,37.71,159.49,100.74,159.17Z"/>
              <g class="cls-26">
                <g class="cls-22">
                  <path class="cls-29" d="M867.49,1141.98l-2.03,3c-16.67-11.03-33.34-22.38-49.54-33.73-119.91-84.02-226.95-177.04-318.15-276.47-77.27-84.26-144.27-174.29-199.15-267.59-44.13-75.04-80.69-152.59-108.66-230.5-19.66-54.77-34.91-109.16-45.32-161.64-1.82-9.15-3.16-18.64-4.47-27.83-1.74-12.23-3.53-24.89-6.45-36.81l3.36-1.09c2.96,12.09,4.77,24.82,6.51,37.14,1.3,9.14,2.64,18.59,4.43,27.64,10.38,52.32,25.58,106.54,45.19,161.16,27.9,77.72,64.38,155.09,108.4,229.95,54.76,93.11,121.63,182.96,198.75,267.06,91.04,99.27,197.91,192.14,317.64,276.02,16.17,11.33,32.82,22.66,49.47,33.68Z"/>
                  <path class="cls-29" d="M373.19,675.55l-2.79,2.28c-87.3-115.45-331.29-169.34-333.74-169.87l.95-3.45c2.47.53,247.59,54.67,335.58,171.04Z"/>
                  <path class="cls-29" d="M646.79,974.49l-2.54,2.58c-68.86-70.67-47.16-269.49-46.93-271.49l3.43.15c-.23,1.98-21.75,199.19,46.04,268.76Z"/>
                  <path class="cls-29" d="M689.52,1010.88l-2.08,2.96c-52.84-36.66-146.24-56.31-262.99-55.32q-5.87.05-6.4-.31l2.05-2.99-1.02,1.49.43-1.73c.39.04,2.6.02,5.17,0,117.41-1,211.47,18.85,264.85,55.88Z"/>
                  <path class="cls-29" d="M837.37,1121.39l-2.78,2.29c-43.18-56.6-15.48-165.17-15.2-166.26l3.34.67c-.28,1.07-27.55,108,14.65,163.3Z"/>
                  <path class="cls-29" d="M865.2,1146.95c-56.54-12.25-119.6-8.03-192.76,12.91l-.7-3.39c73.73-21.1,137.32-25.35,194.42-12.97l-.95,3.45Z"/>
                  <path class="cls-29" d="M210.46,380.82l-2.9,2.13c-44.82-67.22-107.99-126.05-128.74-145.38-5.02-4.68-6.79-6.33-7.29-7.03l2.82-2.24c.39.52,3.27,3.2,6.9,6.58,20.82,19.39,84.19,78.41,129.21,145.94Z"/>
                  <path class="cls-29" d="M266.66,502.35l-3.33,1.2c-21.02-74.29,55.11-217.33,58.36-223.38l3,1.52c-.79,1.47-78.66,147.76-58.03,220.66Z"/>
                </g>
              </g>
            </g>
            <g>
              <path class="cls-18" d="M1183.36,1325.47c-8.63,9.07-51.58-40.73-139.1-60.28-21.87-4.89-139.27-39.8-196.47,32.38-11.1,14.01-22.21,28.02-33.31,42.04-41.44-11.41-78.37-29.85-58.61-82.62,30.69-81.95-82.42-165.31-136.61-175.56-67.07-12.69-222.44-45.49-176.94-172.82,37.87-106,83.48-167.88-19.23-250.6-102.71-82.73-124.47-191.8-43.11-289.03,85.61-102.32,14.12-287.5,124.32-342.7,192.01-96.18,326.22,211.21,257.68,446.1-68.54,234.89,74.04,173.96,165.47,231.65,8.18,5.84,20.42,15.52,32.7,29.68,75.57,87.22,21.52,193.35,45.92,315.67,33.27,166.82,191.85,260.82,177.3,276.1Z"/>
              <g class="cls-28">
                <g class="cls-22">
                  <path class="cls-29" d="M903.1,1201.85l-4.62,4.26C607.2,884.54,481.27,413.35,569.84-23.59l5.98.89c-88.2,435.09,37.21,904.31,327.29,1224.55Z"/>
                  <path class="cls-29" d="M760.07,1011.98l-3.74,5.05c-138.43-99.71-338.39-53.32-340.39-52.84l-1.09-5.95c2.03-.49,204.61-47.54,345.22,53.74Z"/>
                  <path class="cls-29" d="M851.21,1141.13l-5.58,2.79c-71.76-158.76,108.83-438.41,110.66-441.22l5.04,3.15c-1.81,2.78-180.52,279.54-110.12,435.28Z"/>
                  <path class="cls-29" d="M593.11,616.78l-5.35,3.25c-67.73-119.97-276.68-163.36-278.78-163.79l1.53-6.01c2.13.43,213.63,44.35,282.6,166.54Z"/>
                  <path class="cls-29" d="M549.92,338.74l-6.07-.31c17.52-161.04,184.24-309.92,185.92-311.4l3.88,4.5c-1.67,1.46-166.49,148.69-183.74,307.22Z"/>
                </g>
              </g>
            </g>
          </g>
          <g>
            <path class="cls-17" d="M137.5,1334.77L1257.04,501.34c58.69-43.69,140.94-35.82,190.28,18.21l813.92,891.31-919.61,457.49L137.5,1334.77Z"/>
            <path class="cls-2" d="M150.69,1357.32l1119.55-833.43c58.69-43.69,140.94-35.82,190.28,18.21l813.92,891.31-919.61,457.49L150.69,1357.32Z"/>
            <path class="cls-14" d="M2174.59,1386.35l-1987.27-68.55c-41.96-1.45-76.77,32.18-76.77,74.17v1280.8c0,43.17,36.71,77.23,79.76,74l1987.27-149.1c38.72-2.91,68.66-35.17,68.66-74v-1063.15c0-39.99-31.69-72.79-71.65-74.17Z"/>
            <path class="cls-15" d="M2208.75,1386.35l-1987.27-68.55c-41.96-1.45-76.77,32.18-76.77,74.17v1280.8c0,43.17,36.71,77.23,79.76,74l1987.27-149.1c38.72-2.91,68.66-35.17,68.66-74v-1063.15c0-39.99-31.69-72.79-71.65-74.17Z"/>
            <g>
              <path class="cls-13" d="M1428.54,2098.58l832.7-687.73c-13.02-14.43-31.6-23.79-52.49-24.51l-1987.27-68.55c-18.91-.65-36.35,5.83-49.82,16.98l1113.2,769.94c43.87,30.34,102.55,27.84,143.68-6.13Z"/>
              <path class="cls-12" d="M1428.54,2098.58c-41.12,33.97-99.81,36.47-143.68,6.13L171.66,1334.77c-16.43,13.59-26.95,34.12-26.95,57.19v1280.8c0,43.17,36.71,77.23,79.76,74l1987.27-149.1c38.72-2.91,68.66-35.17,68.66-74v-1063.15c0-19.09-7.27-36.48-19.16-49.66l-832.7,687.73Z"/>
            </g>
            <path class="cls-16" d="M1428.54,2098.58l832.7-687.73c-13.02-14.43-31.6-23.79-52.49-24.51l-1987.27-68.55c-18.91-.65-36.35,5.83-49.82,16.98l1113.2,769.94c43.87,30.34,102.55,27.84,143.68-6.13Z"/>
            <path class="cls-7" d="M2261.24,1410.86l-832.7,687.73c-41.12,33.97-99.81,36.47-143.68,6.13L171.66,1334.77c-16.43,13.59-26.95,34.12-26.95,57.19v188.89c40.22-16.9,74.25-20.15,101.92-17.83,76.48,6.39,94.74,54.13,241.18,123.05,136.92,64.44,151.29,36.98,211.65,83.68,116.29,89.97,65.43,193.81,167.35,290.4,106.13,100.58,197.7,22.51,349.47,118.13,160.37,101.04,109.03,220.3,241.18,290.4,185.14,98.21,374.21-89.05,531.58,9.84,47.58,29.9,78.01,77.02,97.62,128.53l125.08-9.38c38.72-2.91,68.66-35.17,68.66-74v-1063.15c0-19.09-7.27-36.48-19.16-49.66Z"/>
          </g>
          <g>
            <g>
              <g>
                <path class="cls-43" d="M1461.32,1962.52c-46.44,16.09-101.17,5.36-138.07-31.05l-520.27-513.5c-47.37-46.76-47.68-122.06-.52-168.6,47.5-46.87,147.84-57.27,196.07-10.17l529.82,517.44c49.95,48.79,48.92,125.5-2.11,170.92-12.57,11.19-49.6,29.66-64.91,34.97Z"/>
                <path class="cls-8" d="M802.46,1249.36c47.5-46.87,147.84-57.27,196.07-10.17l484.43,473.12c-45.05,6.62-92.81,27.77-156.03,6.65-105.25-35.16-103.69-137.5-197-188.91-42.65-23.5-109.78-38.91-219.45-5.98l-107.5-106.11c-47.37-46.76-47.68-122.06-.52-168.6Z"/>
              </g>
              <g>
                <path class="cls-44" d="M594.67,1191.35c2.23-.93,4.51-1.69,6.82-2.31l159.4-68.98,174.79,416.38-155.53,62.8c-3.55,2.68-7.38,4.91-11.48,6.63-54.88,23.04-138.33-51.08-186.38-165.54-48.05-114.47-42.51-225.94,12.37-248.98Z"/>
                <path class="cls-45" d="M760.89,1120.05c-2.45,164.11,55.54,302.27,174.79,416.38l1351.99-117.07L1809.39,245.54l-1048.5,874.51Z"/>
                <path class="cls-9" d="M1821.9,1210.84c-131.27,4.64-235.44-144.91-369.26-95.24-105,38.97-94.03,152.2-199.66,183.84-108.13,32.38-172.35-71.9-304.75-62.57-60.2,4.24-113.94,30.68-161.09,68.26,27.57,85.82,76.96,162.81,148.54,231.31l1351.99-117.07-237.04-367.22c-88.69,117.82-165.09,156.44-228.73,158.69Z"/>
                <ellipse class="cls-55" cx="2098.2" cy="806.18" rx="314.26" ry="655.41" transform="translate(-148.49 874.98) rotate(-22.77)"/>
                <path class="cls-56" d="M2343.28,1390c33.97-14.26,61.38-42.53,81.44-84.02,20.42-42.22,32.38-95.92,35.55-159.6,6.65-133.86-26.31-294.82-92.81-453.24-66.5-158.41-158.31-294.67-258.52-383.67-47.67-42.34-94.37-71.41-138.81-86.4-43.67-14.73-83.03-14.97-117.01-.71-33.97,14.26-61.38,42.53-81.44,84.02-20.42,42.22-32.38,95.92-35.55,159.6-2.78,55.97,1.36,116.68,11.99,179.96,14.79,88.06,104.41,148.85,143.11,241.02,41.15,98.02,29.69,219.8,86.21,294.91,34.83,46.28,71.81,87.09,110.02,121.02,47.67,42.34,94.37,71.41,138.81,86.4,43.67,14.73,83.03,14.97,117.01.71Z"/>
                <g class="cls-27">
                  <path class="cls-57" d="M2125.38,804.1c64.27,153.11,13.92,317.23-110.67,365.89-122.67,47.9-271.38-34.46-333.87-183.31-62.48-148.85-16.49-311.18,104.4-363.31,122.79-52.95,275.87,27.63,340.14,180.73Z"/>
                  <path class="cls-11" d="M2104.85,809.78c47.73,113.69,36.22,224.7-24.82,247.62-60.1,22.56-145.75-49-192.15-159.53-46.4-110.53-37.02-220.67,21.75-246.38,59.7-26.1,147.49,44.6,195.21,158.29Z"/>
                </g>
              </g>
            </g>
            <g>
              <ellipse class="cls-47" cx="2199.89" cy="324.38" rx="220.63" ry="175.63" transform="translate(66.16 950.41) rotate(-24.74)"/>
              <path class="cls-32" d="M2172.21,429.11l-69.92-151.73c-4.49-9.74.73-19.91,9.73-18.98l162.79,16.96c10.3,1.07,16.89,15.38,11.02,23.91l-92.88,134.77c-5.14,7.45-16.26,4.81-20.75-4.93Z"/>
              <g class="cls-5">
                <path class="cls-46" d="M2303.32,420.84c-45.88-35.97-41.73-91.26-88.44-106.65-47.45-15.63-77.35,33-135.39,29.22-22.44-1.46-50.98-10.89-83.49-42.4-13.4,38.71-13.25,79.31,3.51,115.7,40.59,88.1,163.21,118.17,273.88,67.18,25.35-11.68,47.88-26.61,67.05-43.73-15.63-4.95-27.67-11.9-37.12-19.32Z"/>
              </g>
            </g>
            <g>
              <ellipse class="cls-48" cx="2535.23" cy="648.7" rx="271.95" ry="216.49" transform="translate(-80.46 728.4) rotate(-16.1)"/>
              <path class="cls-32" d="M2495.96,512.62c-51.62,14.9-81.38,68.81-66.49,120.43,9.65,33.45,71.36,99.93,113.6,142.59,17.56,17.73,47.76,9.02,53.17-15.34,13.02-58.6,29.81-147.74,20.15-181.19-14.9-51.62-68.81-81.38-120.43-66.49ZM2537.41,656.26c-27.71,8-56.66-7.98-64.66-35.7-8-27.71,7.98-56.66,35.7-64.66,27.71-8,56.66,7.98,64.66,35.7,8,27.71-7.98,56.66-35.7,64.66Z"/>
              <g class="cls-5">
                <path class="cls-49" d="M2643.41,785.41c-49.25-52.33-33.95-118.95-88.03-146.35-54.94-27.83-100.38,25.89-170.41,10.53-27.07-5.94-60.11-22.72-93.89-67.14-23.5,44.7-30.84,94.2-17.15,141.65,33.15,114.88,177.01,174.24,321.32,132.59,33.06-9.54,63.27-23.56,89.81-40.88-18.13-8.93-31.51-19.63-41.66-30.41Z"/>
              </g>
            </g>
            <g>
              <path class="cls-63" d="M2672.88,1167c-15.28,93.66-118.89,154.94-233.11,136.59-116.13-18.65-198.93-112.25-183.18-208.76,15.75-96.52,123.7-157.04,239.36-135.51,113.75,21.18,192.22,114.02,176.93,207.68Z"/>
              <path class="cls-51" d="M2672.88,1167c-15.28,93.66-118.89,154.94-233.11,136.59-116.13-18.65-198.93-112.25-183.18-208.76,15.75-96.52,123.7-157.04,239.36-135.51,113.75,21.18,192.22,114.02,176.93,207.68Z"/>
              <path class="cls-32" d="M2591.49,1105.61h0c-4.77-25.56-23.62-46.47-49.01-51.03-33.25-5.98-65.07,18.31-70.94,54.28,5.87-35.97-16.55-70.02-50.22-76.08-25.93-4.66-50.99,8.62-63.95,31.43h0c-48.5,81.49,90.73,188.26,90.73,188.26,0,0,162.32-55.38,143.38-146.86Z"/>
              <g class="cls-5">
                <path class="cls-64" d="M2497.34,1268c-16.73-54.84,16.26-97.95-12.17-136.55-29.03-39.4-79.17-16.17-123.53-52.05-17.23-13.94-35.06-37.99-43.98-82.68-32.22,24.4-54.57,58.22-61.08,98.09-15.75,96.52,67.06,190.11,183.18,208.76,26.33,4.23,52.09,4.23,76.31.59-9.58-12.6-15.29-24.9-18.73-36.18Z"/>
              </g>
            </g>
          </g>
          <g>
            <g>
              <g>
                <path class="cls-62" d="M2442.11,1833.84s141.65-245.27,333.21,171.84c149.17,324.79,52.76,686.13-292.34,785.28-345.09,99.15-884.09-101.09-714.9-242.21,358.87-299.35,631.25-564.68,674.03-714.9Z"/>
                <g class="cls-5">
                  <path class="cls-50" d="M2619.86,2054.25c10.08,29.71,12.37,114.34,8.11,211.67-3.8,86.82,4.09,132.21-134.04,195.36-47.35,21.65-80.09,90.33-152.58,131.19-32.87,18.52-156.68,85.55-316.57,58.47-105.8-17.92-184.57-69.81-237.62-118.17,349.39-292.79,612.94-551.39,654.96-698.94,0,0,51.76-89.55,134.99-68.35-20.19,22.51-27.05,83.13,42.75,288.76Z"/>
                </g>
                <g class="cls-5">
                  <path class="cls-65" d="M1930.65,2692.29c163.21,90.12,435.78,145.13,638.85-5.7,188.03-139.65,204.78-373.54,211.05-444.91,10.95-124.74-13.42-233.36-48.56-320.98,14.12,24.68,28.58,52.85,43.33,84.98,149.17,324.79,52.76,686.13-292.34,785.28-339.68,97.59-867.22-94.88-722.34-235.53,41.17,46.45,96.73,96.41,170.01,136.87Z"/>
                </g>
              </g>
              <path class="cls-10" d="M2187.76,2719.06c4.84,0,9.69-.05,14.6-.16,126.04-2.81,303.01-44.68,430.24-228.14,107.47-154.95,93.08-329.83,62.09-449.24-33.54-129.24-93.24-223.16-93.84-224.09-.67-1.05-2.06-1.34-3.1-.68-1.04.67-1.34,2.06-.68,3.1.59.93,59.96,94.35,93.31,222.92,30.72,118.47,45,291.92-61.47,445.44-126.16,181.91-301.66,223.42-426.66,226.21-135.64,3.02-242.58-37.5-243.64-37.91-1.15-.45-2.45.13-2.9,1.29-.45,1.16.13,2.46,1.29,2.9,1.03.4,101.3,38.37,230.75,38.37Z"/>
            </g>
            <g>
              <g>
                <g>
                  <path class="cls-53" d="M1510.89,2695.86c9-9.68,25.11-51.37-4.28-59.93-29.56-8.61-45.99-19.52-86.69-52.15-40.7-32.63-51.16-4.61,6.33,48.38,57.49,52.99,71.85,77.46,84.64,63.69Z"/>
                  <path class="cls-52" d="M1549.41,2634.99l-24.21,21.14c-5.06,4.42-12.42,4.98-18.09,1.4-2.64-1.67-4.34-4.5-4.56-7.62-.22-3.12,1.05-6.16,3.42-8.2l35.39-30.28,8.05,23.57Z"/>
                </g>
                <g>
                  <path class="cls-54" d="M2274.6,2431.42c42.78,37.48-46.52,160.38-189.17,120.54-172.87-48.27-392.73-26.58-540.93,94.09-8.6-7.65-29.89-19.65-20.15-29.5,133.88-135.38,257.89-213.1,360.6-233.96,155.29-31.53,267.85-57.89,389.66,48.82Z"/>
                  <g class="cls-4">
                    <path class="cls-25" d="M1773.07,2482.89c-25.08,14.59-30.42-15.05-43.36-34.55,55.53-34.1,107.68-56.1,155.23-65.75,155.29-31.53,267.85-57.89,389.66,48.82,42.78,37.48-46.52,160.38-189.18,120.54-51.59-14.41-107.4-22.42-164.21-23.59-45.7-28.74-83.08-94.67-148.14-45.47Z"/>
                  </g>
                </g>
              </g>
              <path class="cls-59" d="M2299.85,2559.45l8.78,3.36s56.8-53.63,66.93-67.3c12.35-16.68-126.74-59.19-171.91-114.82-47.46-58.45-9.96,69.39-9.96,69.39l106.17,109.37Z"/>
              <g>
                <path class="cls-58" d="M2351.36,2033.28s-50.43,6.91-105.72,104.96c-41.57,73.72-131.84,134.79-131.84,134.79l-9.27,58.01,74.91,13.16,26.8-17.65,73.1-155.53,72.01-137.74Z"/>
                <g>
                  <path class="cls-60" d="M2449.14,2027.02s124.3,15.33,126.97,158.36c2.46,132-45.16,183.13-162.01,293.2-11.75,11.07-30.81,11.07-32.22,12.66-7.59,8.56-15.29,17.48-23.06,26.81-104.58-100.36-222.5-134.35-222.5-134.35,0,0,109.06-225.62,156.98-300.41,49.41-77.11,123.93-63.94,155.84-56.27Z"/>
                  <g class="cls-5">
                    <path class="cls-66" d="M2242.76,2360.22c52.47,28.08,126.84,24.9,154.19-9.84,20.6-26.17,23.93-35.92,49.01-77,20.17-33.06,29.99-38.35,74.06-66.18,16.63-10.5,35.51-25.7,54.02-48.49,1.17,8.37,1.91,17.23,2.08,26.69,2.46,132-45.16,183.13-162.01,293.2-11.75,11.07-30.81,11.07-32.22,12.66-7.59,8.56-15.29,17.48-23.06,26.81-104.58-100.36-222.5-134.35-222.5-134.35,0,0,18.1-35.49,42.07-85.38,17.39,29.13,30.71,43.89,64.38,61.9Z"/>
                  </g>
                </g>
                <path class="cls-61" d="M2328.47,2364.42s-23.56,1.09-40.29-5.65c-16.73-6.74-15.35-8.29-34.61-10.73-18.72-2.38-55.59-13.49-34.72-32.47,23.23-21.13,63.06-15.21,74.51-1.18,11.03,13.52,30.15,22.11,30.15,22.11l4.96,27.92Z"/>
                <path class="cls-67" d="M2538.59,2098.32s69.04,8.04,28.75,230.35c-20.89,115.3-124.17,99.07-248.88,51.43-8.44-17.66,2.42-55.09,2.42-55.09,0,0,154.94,63.89,158.95-29.32,4.49-104.49,18.48-208.41,58.76-197.37Z"/>
                <path class="cls-30" d="M2420.22,2074.32c29.55,0,59.57-21.88,61.01-22.94.5-.37.6-1.07.24-1.57-.37-.5-1.07-.6-1.57-.24-.4.29-39.86,29.06-71.8,21.08-8.85-2.21-14.91-6.54-18-12.87-5.9-12.04.78-27.49.85-27.64.25-.57,0-1.23-.57-1.48-.58-.25-1.23.01-1.48.57-.3.67-7.17,16.56-.82,29.54,3.4,6.95,9.96,11.68,19.47,14.06,4.15,1.04,8.41,1.49,12.67,1.49Z"/>
                <path class="cls-23" d="M2376.29,2486.67c.31,0,.61-.13.83-.37.42-.46.38-1.17-.08-1.58-1.11-1-112.39-100.61-212.85-125.18-.61-.16-1.21.23-1.36.82-.15.6.22,1.21.82,1.36,99.91,24.43,210.77,123.66,211.88,124.66.21.19.48.29.75.29Z"/>
              </g>
              <g>
                <path class="cls-35" d="M2453.54,1959.86s-4.68,53.87-.45,64.08c4.23,10.2-9.13,24.11-35.54,29.47-26.41,5.36-5.5-53.72-5.5-53.72l41.5-39.82Z"/>
                <path class="cls-36" d="M2377.44,1963.87c-27.45-14.97-26.87-85.24-11.35-90.59,8.91-3.07,13.3,18.59,42.71,31.12,22.9,9.76,39.2,4.71,47.55,18.18,3.92,6.33,5.42,15.67,4.15,23.53-.66,4.05-2.48,9.29-6.83,19.48-3.86,9.04-3.55,8.7-4.76,11.34-2.91,6.36-8.8,17.26-20.89,30.99-1.63-3.87-3.91-8.61-7.15-13.64-1.24-1.93-6.2-9.47-12.81-15.31-12.03-10.64-22.75-10.81-30.62-15.11Z"/>
                <path class="cls-37" d="M2444.13,1993.56s-10.28,25.15-38.37,27.82c-25.15,2.38-37.78-52.85-23.78-67.25,4.67-4.8,15.03-8.15,24.05-7.12,5.33.61,7.4,2.45,16.13,3.28,8.05.76,10.1-.45,12.75,1.14,3.31,1.99,6.42,7.67,4.17,24.77,3.97-5.57,9.38-8.34,13.72-7.08.69.2,2.59,1.09,3.84,2.7,4.5,5.82,0,14.89-12.51,21.75Z"/>
              </g>
              <g>
                <path class="cls-31" d="M2311.91,2394.3c1.13.16,2.17.99,2.46,2.06.04.16-.4,5.79-.38,5.96.11,1.31-.69,2.52-1.95,2.93l-105.7,34.33-197.53-77.36,93.85,7.18,209.24,24.89Z"/>
                <path class="cls-20" d="M2311.96,2393.53c1.3.19,2.3,1.25,2.41,2.56.11,1.31-.69,2.52-1.94,2.93l-105.7,34.33-197.53-77.36,93.85,7.18,208.91,30.36Z"/>
                <path class="cls-34" d="M2211.41,2431.82l-15.75-206.06c-.25-3.3-2.74-6-6.01-6.51l-236.55-37.03c-2.12-.33-4.27.31-5.87,1.74-1.6,1.43-2.47,3.5-2.37,5.65l8.88,192.06c.15,3.31,2.57,6.09,5.83,6.69l245.75,45.5,6.09-2.04Z"/>
                <path class="cls-31" d="M2206.35,2439.58l-16.24-210.6c-.25-3.3-2.74-5.99-6.01-6.5l-236.56-37.03c-2.12-.33-4.27.31-5.87,1.74-1.6,1.43-2.47,3.5-2.37,5.65l8.88,192.09c.15,3.3,2.55,6.07,5.8,6.68l252.37,47.98Z"/>
                <path class="cls-33" d="M2206.35,2439.58l-252.37-47.98c-3.25-.62-5.65-3.38-5.8-6.68l-2.68-57.93c75.18,42.69,169.39,48.12,257.19,65.25l3.65,47.34Z"/>
              </g>
              <g>
                <path class="cls-41" d="M1778.91,2396.42c3.45-11.98,11.08-25.22-16.14-34.88-19.76-7.01-54.08-9.26-85.27-10.87-43.71-2.24-53.77,23.91,10.12,40.55,41.84,10.9,86.39,22.23,91.3,5.19Z"/>
                <path class="cls-39" d="M1744.85,2378.08c-.41,6.7,3.86,11.96,9.43,12.76,12.93,1.85,10.51-4.81,10.92-11.52.41-6.7,5.64-11.36-9.43-12.76-5.61-.52-10.51,4.81-10.92,11.51Z"/>
                <path class="cls-42" d="M1877.57,2339.52l-12.77-2.01s-24.87,2.33-93.42,21.23c-14.67,2.43-34.68,45.26,8.32,46.94,43,1.68,95.32,33.7,95.32,33.7l2.54-99.85Z"/>
                <path class="cls-40" d="M2323.98,2538.78s-6.26,55.57-135.48,50.52c-129.22-5.06-360.07-139.2-358.62-209.6,1.45-70.39,87.36-42.27,176.3-1.58,75.07,34.34,191.04,54.23,214.8,57.92,30.43,4.72,110.35,76.05,103,102.74Z"/>
                <g class="cls-6">
                  <path class="cls-38" d="M2154.9,2469.13c-59.81-6.09-73.25-49.02-147.68-61.43-48.23-8.04-65.27,6.2-89.85-10.27-19.41-13-29.32-35.67-34.09-60.28,32.99,2.8,77.51,20.19,122.9,40.96,72.92,33.36,184.4,53.08,212.53,57.56.83.13,19.69-6.61,19.69-6.61,0,0,14.03,8.02,24.1,14.35-39.21,21.02-85.74,27.94-107.59,25.72Z"/>
                </g>
              </g>
            </g>
          </g>
        </g>
      </g>
    </g>
  </g>
</svg>